# xmcd
#
# Track frame offsets:
#	150
#	19747
#	37727
#	57535
#	74767
#	92587
#	108537
#	126802
#	145910
#	165052
#	179942
#	197982
#
# Disc length: 2891 seconds
#
# Revision: 1
# Processed by: cddbd v1.5.1PL0 Copyright (c) Steve Scherf et al.
# Submitted via: CDex 1.50Beta5
#
DISCID=ad0b490c
DTITLE=とみたゆう子 - シングルコレクション
DYEAR=1900
DGENRE=J-pop
TTITLE0=YOKOHAMA 風のステイション
TTITLE1=オルフェの涙
TTITLE2=Secret Lips
TTITLE3=蒼い風
TTITLE4=Olive
TTITLE5=よこはま物語
TTITLE6=カシオペアのふたり
TTITLE7=LAZY・MOON
TTITLE8=慕情
TTITLE9=QTフレンド
TTITLE10=Bobby
TTITLE11=セプテンバー・ガール
EXTD=
EXTT0=
EXTT1=
EXTT2=
EXTT3=
EXTT4=
EXTT5=
EXTT6=
EXTT7=
EXTT8=
EXTT9=
EXTT10=
EXTT11=
PLAYORDER=
